# xmcd
#
# Track frame offsets:
#  150
#  14744
#  24351
#  37355
#  52310
#  62804
#  68966
#  77847
#  90344
#  113851
#  124107
#  133830
#  143779
#  155643
#  172543
#  178168
#
# Disc length: 4763 seconds
#
# Revision: 0
# Processed by: cddbd v1.5.2PL0 Copyright (c) Steve Scherf et al.
# Submitted via: AltoMP3_Maker 3.0
#
DISCID=e6129910
DTITLE=Tommy Hancock - Tommy Hancock Live! from the Cotton Club, Lubbock, TX
DYEAR=1900
DGENRE=
TTITLE0=Big Ball's in Cowtown
TTITLE1=Tonight
TTITLE2=Dr. Zhivago
TTITLE3=Lazbuddie Buddy
TTITLE4=Afraid of the Dark
TTITLE5=Honey Be Sweet
TTITLE6=Cotton Pickin'
TTITLE7=Jole Blon
TTITLE8=The Nervous Breakdown
TTITLE9=The Iron and Steel Business
TTITLE10=The Mexican Hat Dance
TTITLE11=Trash on the Highway
TTITLE12=Cat Daddy
TTITLE13=The Party's Over
TTITLE14=The Roadside Rag
TTITLE15=LIVE! Tommy X Hancock interview
EXTD=
EXTT0=
EXTT1=
EXTT2=
EXTT3=
EXTT4=
EXTT5=
EXTT6=
EXTT7=
EXTT8=
EXTT9=
EXTT10=
EXTT11=
EXTT12=
EXTT13=
EXTT14=
EXTT15=
PLAYORDER=
